# xmcd
#
# Track frame offsets: 
#        150
#        10322
#        22284
#        32459
#        45399
#        57288
#        69729
#        79356
#        91534
#        104485
#        118931
#        130339
#        144495
#        156028
#        165389
#        178221
#        192436
#        204078
#        212567
#        222331
#
# Disc length: 3143 seconds
#
# Revision: 1
# Processed by: cddbd v1.5.2PL0 Copyright (c) Steve Scherf et al.
# Submitted via: ExactAudioCopyFreeDBPlugin 1.0
#
DISCID=1b0c4514
DTITLE=Charley Pride - Charley Pride's 10th Album and From Me To You
DYEAR=2015
DGENRE=Country
TTITLE0=Able Bodied Man
TTITLE1=Through The Years
TTITLE2=Is Anybody Goin' To San Antone
TTITLE3=The Thought Of Losing You
TTITLE4=I Think I'll Take A Walk
TTITLE5=Things Are Looking Up
TTITLE6=Special
TTITLE7=A Poor Boy Like Me
TTITLE8=(There's) Nobody Home To Go Home To
TTITLE9=This Is My Year For Mexico
TTITLE10=That's The Only Way Life's Good To Me
TTITLE11=I Can't Believe That You've Stopped Loving Me
TTITLE12=(There's Still) Someone I Can't Forget
TTITLE13=Sweet Promises
TTITLE14=Was It All Worth Losing You
TTITLE15=Fifteen Years Ago
TTITLE16=Wonder Could I Live There Anymore
TTITLE17=Piroque Joe
TTITLE18=Time (You're Not A Friend Of Mine)
TTITLE19=Today Is That Tomorrow
EXTD=YEAR: 2015
EXTT0=
EXTT1=
EXTT2=
EXTT3=
EXTT4=
EXTT5=
EXTT6=
EXTT7=
EXTT8=
EXTT9=
EXTT10=
EXTT11=
EXTT12=
EXTT13=
EXTT14=
EXTT15=
EXTT16=
EXTT17=
EXTT18=
EXTT19=
PLAYORDER=
